<?xml version="1.0" encoding="UTF-8"?>
<svg version="1.1" xmlns="http://www.w3.org/2000/svg" width="500" height="500">
<path d="M0 0 C165 0 330 0 500 0 C500 165 500 330 500 500 C335 500 170 500 0 500 C0 335 0 170 0 0 Z " fill="#000000" transform="translate(0,0)"/>
<path d="M0 0 C2.56055697 -0.00966613 5.12029576 -0.0407534 7.68066406 -0.07226562 C22.48937941 -0.16981609 35.95267601 1.86299104 49.96191406 6.92773438 C50.93676758 7.27441162 51.91162109 7.62108887 52.91601562 7.97827148 C70.99280892 14.57044199 86.44105743 24.34706275 101.46191406 36.24023438 C102.41324219 36.95824219 103.36457031 37.67625 104.34472656 38.41601562 C105.39273438 39.31900391 105.39273438 39.31900391 106.46191406 40.24023438 C106.46191406 40.90023437 106.46191406 41.56023437 106.46191406 42.24023438 C107.02652344 42.47226563 107.59113281 42.70429688 108.17285156 42.94335938 C128.54131997 54.48317424 143.54135207 89.18849431 149.55175781 110.57617188 C150.00228516 112.38988281 150.00228516 112.38988281 150.46191406 114.24023438 C150.64383301 114.95727539 150.82575195 115.67431641 151.01318359 116.41308594 C160.44030868 155.03003281 154.0984996 197.11035106 133.71923828 231.20898438 C111.62200444 266.90781652 77.26704315 292.7445789 36.30566406 302.41601562 C35.03722656 302.68800781 33.76878906 302.96 32.46191406 303.24023438 C31.79780518 303.41828613 31.13369629 303.59633789 30.44946289 303.77978516 C22.31336018 305.77031761 14.08110513 305.54168277 5.7590332 305.50097656 C3.1656126 305.49030105 0.57289115 305.50089288 -2.02050781 305.51367188 C-11.37100628 305.52195175 -20.33747018 305.10123954 -29.53808594 303.24023438 C-30.27663818 303.09424805 -31.01519043 302.94826172 -31.77612305 302.79785156 C-60.31600896 296.75369469 -83.93678811 282.42146979 -105.53808594 263.24023438 C-106.19164062 262.66015625 -106.84519531 262.08007812 -107.51855469 261.48242188 C-132.52087696 237.8460222 -150.49885094 199.95952605 -151.66113281 165.60302734 C-151.74210599 162.03993773 -151.76895899 158.47775208 -151.77832031 154.91381836 C-151.78796042 152.70647521 -151.819038 150.50009204 -151.85058594 148.29296875 C-152.14751728 108.22485174 -133.50095612 71.05247555 -106.03857422 42.73388672 C-77.43073179 14.25637615 -39.90754032 0.09073332 0 0 Z " fill="#DFDFDF" transform="translate(243.5380859375,97.759765625)"/>
<path d="M0 0 C1.85238281 0.49693359 1.85238281 0.49693359 3.7421875 1.00390625 C7.55029048 2.26632988 10.02301524 3.29866198 13 6 C16.37938243 13.33247396 16.11467697 22.08728906 16 30 C13.38142995 28.69071497 13.33579924 27.63697266 12.3125 24.9375 C8.17689608 15.35871152 0.67131917 8.90420431 -8.80859375 4.77734375 C-21.76981353 -0.12927812 -34.78876896 -0.48352164 -48 4 C-62.81657327 10.73314721 -71.17810041 21.1725308 -77 36 C-78.212454 39.70779502 -78.76368857 43.11113583 -79 47 C-79.07992187 48.29550781 -79.15984375 49.59101563 -79.2421875 50.92578125 C-79.90815022 67.49705885 -75.80135275 82.84434795 -64.3125 95.3125 C-57.61315439 101.55566449 -49.81391265 105.73325093 -41 108 C-40.56441629 104.09055899 -40.13762611 100.18025783 -39.71826172 96.26904297 C-39.50540208 94.29997229 -39.28598905 92.33161353 -39.06640625 90.36328125 C-36.77953532 73.53063311 -36.77953532 73.53063311 -42.94140625 58.48046875 C-49.30165319 50.81679359 -55.59249995 46.62070863 -65.5 45.3125 C-66.655 45.209375 -67.81 45.10625 -69 45 C-69 44.34 -69 43.68 -69 43 C-56.11266284 42.54155718 -47.90843865 43.27369702 -37.5546875 51.37890625 C-29.26259342 59.88654406 -24.69297856 70.41407932 -19.8125 81.0625 C-19.1082874 82.57917821 -18.40321398 84.09545705 -17.69726562 85.61132812 C-14.39793641 92.71133095 -11.14880828 99.83178271 -8 107 C6.85363923 101.60915182 16.75629663 93.68143902 23.76464844 79.29931641 C26.21651775 73.93206186 27.4363279 68.84395343 28 63 C28.10828125 61.89527344 28.2165625 60.79054688 28.328125 59.65234375 C28.58439016 56.7693607 28.80848107 53.88790383 29 51 C29.66 51 30.32 51 31 51 C31.54407935 69.31733798 28.95776582 85.05800572 16.6875 99.5 C11.1190171 105.28741471 4.56633264 109.32952966 -3 112 C-3.99 112 -4.98 112 -6 112 C-1.71 120.91 2.58 129.82 7 139 C8.89066344 134.74607946 8.89066344 134.74607946 10.78108215 130.49205017 C12.47858544 126.67190721 14.17727871 122.85229876 15.87768555 119.03344727 C19.61540821 110.63575092 23.34144583 102.23323422 27.03817749 93.81739807 C28.84789983 89.6991798 30.66291577 85.58330455 32.47839355 81.46762085 C33.36720637 79.4488837 34.25352291 77.42904564 35.1373291 75.40811157 C36.38339902 72.55960418 37.63803377 69.71501363 38.89453125 66.87109375 C39.26578629 66.0164151 39.63704132 65.16173645 40.01954651 64.28115845 C40.36863571 63.4954245 40.71772491 62.70969055 41.07739258 61.90014648 C41.52795769 60.87388405 41.52795769 60.87388405 41.98762512 59.82688904 C43.08293762 57.85033427 44.33572978 56.51519648 46 55 C47.81581709 64.35420923 49.49021978 73.72685042 51.0625 83.125 C51.22459961 84.08857422 51.38669922 85.05214844 51.55371094 86.04492188 C52.41424992 91.22910195 53.21187119 96.41736694 53.9453125 101.62109375 C55.03083902 109.29825752 56.20074417 116.95925726 57.43969727 124.61303711 C57.68781906 126.16010168 57.93100213 127.70796659 58.16918945 129.2565918 C61.22414013 150.26464158 61.22414013 150.26464158 72 168 C72.78503906 168.82564453 72.78503906 168.82564453 73.5859375 169.66796875 C80.1269363 175.88652395 88.15402154 178.34474234 97 179 C97 179.66 97 180.32 97 181 C84.82445025 181.59152468 74.6679035 180.78931268 64.83984375 172.75 C55.80940407 164.1605372 51.4193591 154.15179028 49.0546875 142.10546875 C48.88341843 141.23949066 48.71214935 140.37351257 48.53569031 139.48129272 C46.4841946 128.76225593 45.15468579 117.95109664 43.8125 107.125 C43.42327929 104.03974338 43.03204953 100.95474855 42.64006042 97.86984253 C42.3998068 95.97355747 42.16149719 94.0770247 41.92549133 92.1802063 C41.37321067 87.76793106 40.77470164 83.3802341 40 79 C31.97523695 96.95089179 23.98125893 114.91628353 16.12475586 132.94155884 C15.41943767 134.55731864 14.71177304 136.17205628 14.00170898 137.78573608 C13.00625895 140.04965693 12.01962438 142.31722373 11.03515625 144.5859375 C10.7410939 145.25010178 10.44703156 145.91426605 10.14405823 146.59855652 C8.51325025 150.38742344 7.50092261 153.90512512 7 158 C4 157 4 157 2.34594727 154.09179688 C1.74203727 152.80576539 1.14963332 151.51429253 0.56640625 150.21875 C0.24719711 149.53123657 -0.07201202 148.84372314 -0.40089417 148.13537598 C-1.42289543 145.92795434 -2.43024404 143.71418291 -3.4375 141.5 C-4.11169233 140.03862945 -4.78681245 138.57768655 -5.46289062 137.1171875 C-8.70124195 130.10363238 -11.86231167 123.05979875 -15 116 C-21.6 115.67 -28.2 115.34 -35 115 C-35.28711927 119.00172477 -35.57270144 123.00351576 -35.85449219 127.00561523 C-35.95061525 128.36440188 -36.04760416 129.72312759 -36.14550781 131.08178711 C-36.28683631 133.04524376 -36.42469599 135.00894909 -36.5625 136.97265625 C-36.64628906 138.15093994 -36.73007813 139.32922363 -36.81640625 140.54321289 C-37.58445668 146.97687386 -37.58445668 146.97687386 -35.75 152.8125 C-33.69850151 154.26088568 -33.69850151 154.26088568 -30 156 C-38.91 156 -47.82 156 -57 156 C-55.02 155.01 -55.02 155.01 -53 154 C-49.11280685 151.97865956 -47.32737886 150.98450889 -45.921875 146.7578125 C-44.52261572 140.42591261 -44.01664173 133.94260674 -43.375 127.5 C-43.2409375 126.200625 -43.106875 124.90125 -42.96875 123.5625 C-42.64067546 120.37549022 -42.31791175 117.18803685 -42 114 C-42.64066406 113.89187988 -43.28132813 113.78375977 -43.94140625 113.67236328 C-59.57926776 110.82620257 -72.67085201 102.20088263 -82.25 89.5703125 C-89.69052804 78.64203694 -92.52535077 67.68421066 -92.4375 54.5625 C-92.45748047 53.50740234 -92.47746094 52.45230469 -92.49804688 51.36523438 C-92.48956149 37.57648997 -86.44869671 23.98339757 -77.02734375 13.90234375 C-56.18777706 -5.65231709 -26.5281517 -9.45707458 0 0 Z " fill="#080808" transform="translate(242,170)"/>
<path d="M0 0 C3.89784981 4.84282641 6.12818458 10.43861077 8.6875 16.0625 C9.19861328 17.16400391 9.70972656 18.26550781 10.23632812 19.40039062 C10.71908203 20.45548828 11.20183594 21.51058594 11.69921875 22.59765625 C12.14096436 23.56195557 12.58270996 24.52625488 13.0378418 25.51977539 C14 28 14 28 14 31 C8.72 31 3.44 31 -2 31 C-2.30674579 20.57064326 -1.14373915 10.34992672 0 0 Z " fill="#D8D8D8" transform="translate(210,249)"/>
<path d="M0 0 C3.29714793 0.32971479 4.6226839 0.6226839 7 3 C6.625 6.125 6.625 6.125 6 9 C3.125 9.625 3.125 9.625 0 10 C-2 8 -2 8 -2.25 5 C-2 2 -2 2 0 0 Z " fill="#212121" transform="translate(182,128)"/>
<path d="M0 0 C0.66 0 1.32 0 2 0 C1.67 2.64 1.34 5.28 1 8 C1.763125 7.484375 2.52625 6.96875 3.3125 6.4375 C4.199375 5.963125 5.08625 5.48875 6 5 C6.99 5.33 7.98 5.66 9 6 C7.35 8.31 5.7 10.62 4 13 C3.34 12.67 2.68 12.34 2 12 C2.66 11.01 3.32 10.02 4 9 C2.35 9.33 0.7 9.66 -1 10 C-1.33 9.01 -1.66 8.02 -2 7 C-2.99 7.33 -3.98 7.66 -5 8 C-3.63055898 5.05043472 -2.12169591 2.47531189 0 0 Z " fill="#2A2A2A" transform="translate(317,137)"/>
<path d="M0 0 C0.66 0 1.32 0 2 0 C2.02706445 2.89589652 2.04687029 5.79153795 2.0625 8.6875 C2.07087891 9.50412109 2.07925781 10.32074219 2.08789062 11.16210938 C2.10442051 15.24499084 2.03035098 19.01651707 1 23 C0.01 22.34 -0.98 21.68 -2 21 C-1.01 10.605 -1.01 10.605 0 0 Z " fill="#252525" transform="translate(271,221)"/>
<path d="M0 0 C1.2065625 0.0309375 1.2065625 0.0309375 2.4375 0.0625 C3.5625 3.8125 3.5625 3.8125 2.4375 6.0625 C3.7575 6.0625 5.0775 6.0625 6.4375 6.0625 C6.4375 6.7225 6.4375 7.3825 6.4375 8.0625 C3.4675 7.5675 3.4675 7.5675 0.4375 7.0625 C0.4375 8.0525 0.4375 9.0425 0.4375 10.0625 C-0.2225 10.0625 -0.8825 10.0625 -1.5625 10.0625 C-1.92366046 8.5850254 -2.27625048 7.10545325 -2.625 5.625 C-2.82222656 4.80128906 -3.01945313 3.97757812 -3.22265625 3.12890625 C-3.39087891 2.10603516 -3.39087891 2.10603516 -3.5625 1.0625 C-2.5625 0.0625 -2.5625 0.0625 0 0 Z " fill="#1F1F1F" transform="translate(201.5625,120.9375)"/>
<path d="M0 0 C1.98 0 3.96 0 6 0 C6 0.66 6 1.32 6 2 C4.68 2 3.36 2 2 2 C2 2.66 2 3.32 2 4 C3.32 4 4.64 4 6 4 C6 4.66 6 5.32 6 6 C4.68 6 3.36 6 2 6 C2 6.66 2 7.32 2 8 C3.32 8 4.64 8 6 8 C6 8.66 6 9.32 6 10 C4.02 10 2.04 10 0 10 C0 6.7 0 3.4 0 0 Z " fill="#2E2E2E" transform="translate(237,114)"/>
<path d="M0 0 C4.455 0.99 4.455 0.99 9 2 C9 2.99 9 3.98 9 5 C2.25 9 2.25 9 0 9 C0 8.34 0 7.68 0 7 C0.66 7 1.32 7 2 7 C2 5.35 2 3.7 2 2 C1.34 2 0.68 2 0 2 C0 1.34 0 0.68 0 0 Z " fill="#373737" transform="translate(368,232)"/>
<path d="M0 0 C0.66 0.33 1.32 0.66 2 1 C2.59355614 3.64860427 2.74209269 6.29197322 3 9 C0.53199953 7.84826645 -1.04783565 6.95216435 -3 5 C-3.33 6.65 -3.66 8.3 -4 10 C-6 8 -6 8 -6.125 4.375 C-6.08375 3.26125 -6.0425 2.1475 -6 1 C-2.125 2.875 -2.125 2.875 -1 4 C-0.67 2.68 -0.34 1.36 0 0 Z " fill="#1A1A1A" transform="translate(223,116)"/>
<path d="M0 0 C-0.33 0.66 -0.66 1.32 -1 2 C-0.01 2.66 0.98 3.32 2 4 C1.67 4.66 1.34 5.32 1 6 C-1.475 5.01 -1.475 5.01 -4 4 C-4.99 5.32 -5.98 6.64 -7 8 C-6.67 6.35 -6.34 4.7 -6 3 C-6.99 2.34 -7.98 1.68 -9 1 C-5.57367167 -0.61798838 -3.61944899 -1.34053666 0 0 Z " fill="#222222" transform="translate(373,214)"/>
<path d="M0 0 C0 0.66 0 1.32 0 2 C-0.99 2.33 -1.98 2.66 -3 3 C-3 4.32 -3 5.64 -3 7 C-1.68 7 -0.36 7 1 7 C1.66 6.34 2.32 5.68 3 5 C2.67 6.32 2.34 7.64 2 9 C-0.3125 9.6875 -0.3125 9.6875 -3 10 C-4.8125 8.875 -4.8125 8.875 -6 7 C-6.375 4.4375 -6.375 4.4375 -6 2 C-3 0 -3 0 0 0 Z " fill="#272727" transform="translate(169,138)"/>
<path d="M0 0 C0.66 0 1.32 0 2 0 C2 3.3 2 6.6 2 10 C1.67 9.01 1.34 8.02 1 7 C-1.31 7 -3.62 7 -6 7 C-5.04882866 5.8274869 -4.08882991 4.66212985 -3.125 3.5 C-2.59132813 2.8503125 -2.05765625 2.200625 -1.5078125 1.53125 C-0.76144531 0.77328125 -0.76144531 0.77328125 0 0 Z " fill="#292929" transform="translate(289,123)"/>
<path d="M0 0 C1.67542976 0.28604898 3.34385343 0.61781233 5 1 C4.67 2.65 4.34 4.3 4 6 C2.68 5.67 1.36 5.34 0 5 C-0.5625 3.0625 -0.5625 3.0625 -1 1 C-0.67 0.67 -0.34 0.34 0 0 Z " fill="#CFCFCF" transform="translate(182,130)"/>
<path d="M0 0 C1.32 1.32 2.64 2.64 4 4 C3.67 4.99 3.34 5.98 3 7 C2.01 6.67 1.02 6.34 0 6 C-3.15020361 6.88319294 -3.15020361 6.88319294 -6 8 C-6 7.34 -6 6.68 -6 6 C-4.02 5.01 -2.04 4.02 0 3 C0 2.01 0 1.02 0 0 Z " fill="#242424" transform="translate(359,182)"/>
<path d="M0 0 C0.99 0.33 1.98 0.66 3 1 C0.525 4.465 0.525 4.465 -2 8 C-2.66 7.67 -3.32 7.34 -4 7 C-3.01 5.68 -2.02 4.36 -1 3 C-1.66 2.67 -2.32 2.34 -3 2 C-2.01 1.34 -1.02 0.68 0 0 Z " fill="#212121" transform="translate(323,142)"/>
<path d="M0 0 C0.99 0 1.98 0 3 0 C3.33 1.32 3.66 2.64 4 4 C5.32 4.33 6.64 4.66 8 5 C8 5.66 8 6.32 8 7 C6.35 6.67 4.7 6.34 3 6 C2.67 5.01 2.34 4.02 2 3 C1.34 3 0.68 3 0 3 C0 2.01 0 1.02 0 0 Z " fill="#626262" transform="translate(200,122)"/>
<path d="M0 0 C0.66 0.33 1.32 0.66 2 1 C2.59355614 3.64860427 2.74209269 6.29197322 3 9 C1.68 8.34 0.36 7.68 -1 7 C-0.67 4.69 -0.34 2.38 0 0 Z " fill="#222222" transform="translate(223,116)"/>
</svg>
